<?xml version="1.0" encoding="UTF-8"?>
<svg id="Calque_1" data-name="Calque 1" xmlns="http://www.w3.org/2000/svg" xmlns:xlink="http://www.w3.org/1999/xlink" viewBox="0 0 500.53 533.1">
  <defs>
    <style>
      .cls-1 {
        fill: #f7aef8;
      }

      .cls-2 {
        fill: url(#Dégradé_sans_nom_9);
      }

      .cls-3 {
        fill: url(#Dégradé_sans_nom_9-2);
      }
    </style>
    <linearGradient id="Dégradé_sans_nom_9" data-name="Dégradé sans nom 9" x1="21.12" y1="389.13" x2="253.23" y2="389.13" gradientUnits="userSpaceOnUse">
      <stop offset="0" stop-color="#f7aef8"/>
      <stop offset="1" stop-color="#3772ff"/>
    </linearGradient>
    <linearGradient id="Dégradé_sans_nom_9-2" data-name="Dégradé sans nom 9" x1="259.91" y1="388.96" x2="500.53" y2="388.96" xlink:href="#Dégradé_sans_nom_9"/>
  </defs>
  <path class="cls-1" d="M255.36,310.98l-33.15-26.54s-4.23-1.9-28.92-4.42c-24.69-2.53-179.87-6.95-179.87-6.95,0,0-16.93-5.69-11.99,15.8,4.94,21.48,12.7,85.93,12.7,85.93,0,0,2.12,13.33,22.57,15.19s151.65-7.61,151.65-7.61c0,0,12.7,1.26,12.7,11.37s0,12-11.29,12.64-138.25,9.48-138.25,9.48c0,0-21.87-3.16-22.57,6.95s9.17,100.46,9.17,100.46c0,0,.71,12,16.22,9.48,15.52-2.53,181.28-22.75,189.74-25.27,8.46-2.53,9.17-6.32,7.05-27.17-1.85-18.21-14.46-93.3-17.62-112.02-.72-4.29-3.02-8.58-7.27-10.66-2.4-1.18-6.57-2.81-11.08-1.8-11.29,2.53-137.5,3.79-137.5,3.79,0,0-6.39-1.26-8.51-9.48-2.12-8.21-7.76-15.16,4.23-16.43,11.99-1.26,181.98-7.58,181.98-7.58,0,0,10.31-6.91,0-15.16Z"/>
  <path class="cls-1" d="M253.45,308.55l125.58-3.25s12.62,4.56,15.28,11.72c2.66,7.16,31.23,48.17,31.23,48.17,0,0,4.65,13.67-5.32,16.27,0,0,11.96-3.25,17.94,3.91,5.98,7.16,51.83,66.39,51.83,66.39,0,0,13.29,13.67,0,18.23-13.29,4.56-175.41,37.1-175.41,37.1,0,0-7.97,1.3-12.62-11.72-4.65-13.02-34.55-89.16-34.55-89.16,0,0,.66-10.37,9.3-13.66,0,0-4.65,4.53-9.97-7.19-5.32-11.72-25.25-67.7-25.25-67.7,0,0,3.33-8.89,11.96-9.11Z"/>
  <path class="cls-1" d="M27.3,260.36l-22.69,8.83s-6.74,2.39-3.92,17.2l29.83,3.02-3.21-29.05Z"/>
  <polygon class="cls-1" points="500.43 443.43 495.89 463.83 478.48 463.83 500.43 443.43"/>
  <polygon class="cls-1" points="263.49 296.82 244.92 312.37 258.61 322.77 263.49 296.82"/>
  <polygon class="cls-1" points="61.43 402.74 34.21 416.83 34.21 426.55 59.42 418.02 61.43 402.74"/>
  <path class="cls-2" d="M249.13,297.03l-29.7-26.54s-6.95-4.42-25.91-4.42c-22.26,0-161.12-6.95-161.12-6.95,0,0-14.22-.68-10.74,15.8,4.53,21.46,11.37,85.93,11.37,85.93,0,0,1.9,13.33,20.22,15.19,16.68,1.7,115.55-6,133.16-7.4,2.9-.23,5.83.27,8.37,1.68,2.84,1.58,5.69,4.42,5.69,9.48,0,10.11,0,12-10.11,12.64-10.11.63-123.84,9.48-123.84,9.48,0,0-19.27.83-20.74,17.07-.91,10.09,8.74,90.35,8.74,90.35,0,0,.63,12,14.53,9.48s162.38-22.75,169.96-25.27,8.21-6.32,6.32-27.17c-1.66-18.21-12.95-93.3-15.78-112.02-.65-4.29-3.08-7.53-6.88-9.61-2.15-1.18-5.61-2.37-9.56-2.84-10.35-1.24-123.17,3.79-123.17,3.79,0,0-5.73-1.26-7.62-9.48s-6.95-15.16,3.79-16.43c9.75-1.15,136.02-6.45,159.33-7.43,3.6-.15,6.85-2.58,7.62-6.1.56-2.57-.08-5.78-3.93-9.22Z"/>
  <path class="cls-3" d="M269.98,294.5l113.21-3c5.25-.14,10.45,1.32,14.74,4.35,2.59,1.83,5.01,4.15,5.99,6.86,2.17,5.96,22.46,36.09,28.19,44.54,1.21,1.78,2.02,3.78,2.32,5.91.58,4.12.36,10.43-5.87,12.09,0,0,11.37-3.16,17.06,3.79,5.69,6.95,49.28,64.45,49.28,64.45,0,0,12.64,13.27,0,17.69-11.22,3.93-134.01,29.27-161.4,34.91-7.03,1.44-14.22-2.22-16.88-8.88-.18-.44-.35-.91-.52-1.39-3.82-10.93-25.61-67.68-31.43-82.83-1.23-3.2-1.2-6.76.23-9.87,1.25-2.72,3.42-5.64,7.19-7.1,0,0-4.42,4.39-9.48-6.98-4.07-9.15-17.14-46.14-22.09-60.23-2.2-6.28,1.66-13.37,8.26-14.24.39-.05.78-.08,1.19-.09Z"/>
  <path class="cls-1" d="M418.14,393.86l-59,6.4s-9.48-.19-6.4,5.95c3.08,6.14,11.85,23.19,11.85,23.19,0,0,2.84,6.16,7.58,4.98s63.5-13.27,63.5-13.27c0,0,3.08,0,0-4.74s-13.74-20.61-13.74-20.61c0,0-1.42-1.95-3.79-1.9Z"/>
  <path class="cls-1" d="M360.7,322.49l-33.01.61s-5.28-.35-3.68,2,6.15,8.87,6.15,8.87c0,0,1.47,2.35,4.13,2.05s35.66-3.01,35.66-3.01c0,0,1.72.09.09-1.74s-7.26-7.98-7.26-7.98c0,0-.75-.76-2.08-.81Z"/>
</svg>